<svg xmlns="http://www.w3.org/2000/svg" xmlns:xlink="http://www.w3.org/1999/xlink" width="500" zoomAndPan="magnify" viewBox="0 0 375 374.999991" height="500" preserveAspectRatio="xMidYMid meet" version="1.2"><defs><clipPath id="01fbea7eed"><path d="M 168 64.359375 L 226 64.359375 L 226 125 L 168 125 Z M 168 64.359375 "/></clipPath><clipPath id="c9c8280824"><path d="M 5.410156 116 L 369.910156 116 L 369.910156 310.359375 L 5.410156 310.359375 Z M 5.410156 116 "/></clipPath></defs><g id="1d97c07066"><g clip-rule="nonzero" clip-path="url(#01fbea7eed)"><path style=" stroke:none;fill-rule:evenodd;fill:#d03531;fill-opacity:1;" d="M 199.769531 72.039062 C 200.203125 72.695312 200.570312 73.382812 200.933594 74.074219 C 201.480469 73.785156 202.027344 73.492188 202.609375 73.273438 C 202.753906 73.203125 202.9375 73.128906 203.082031 73.058594 C 206.359375 71.820312 209.710938 71.75 213.679688 72.984375 C 218.085938 74.402344 221.546875 77.453125 223.511719 81.234375 C 225.476562 85.015625 225.988281 89.59375 224.605469 93.992188 C 222.417969 100.789062 217.175781 106.3125 210.328125 111.144531 C 204.027344 115.652344 196.417969 119.542969 188.84375 123.46875 C 186.4375 124.703125 183.453125 123.757812 182.214844 121.359375 C 178.28125 113.800781 174.386719 106.238281 171.835938 98.898438 C 169.066406 91.011719 167.976562 83.453125 170.125 76.65625 C 171.542969 72.257812 174.605469 68.804688 178.390625 66.84375 C 182.179688 64.878906 186.765625 64.371094 191.171875 65.753906 C 195.105469 67.097656 197.835938 69.09375 199.769531 72.039062 Z M 193.320312 83.050781 C 192.921875 80.582031 192.410156 78.726562 191.574219 77.453125 L 191.574219 77.417969 C 190.917969 76.402344 189.824219 75.675781 188.1875 75.164062 C 186.367188 74.582031 184.472656 74.800781 182.90625 75.636719 C 181.339844 76.4375 180.066406 77.855469 179.484375 79.671875 C 178.0625 84.140625 179.011719 89.667969 181.121094 95.699219 C 182.980469 100.96875 185.746094 106.710938 188.695312 112.492188 C 194.449219 109.472656 200.023438 106.421875 204.613281 103.152344 C 209.820312 99.445312 213.789062 95.480469 215.207031 91.011719 C 215.792969 89.195312 215.574219 87.304688 214.734375 85.742188 C 213.933594 84.179688 212.515625 82.90625 210.691406 82.324219 C 209.019531 81.78125 207.707031 81.78125 206.578125 82.214844 L 206.324219 82.324219 C 204.976562 82.90625 203.484375 84.179688 201.769531 85.921875 C 199.878906 87.886719 196.746094 87.921875 194.816406 86.03125 C 193.941406 85.234375 193.46875 84.140625 193.320312 83.050781 Z M 193.320312 83.050781 "/></g><g clip-rule="nonzero" clip-path="url(#c9c8280824)"><path style=" stroke:none;fill-rule:evenodd;fill:#000000;fill-opacity:1;" d="M 330.359375 275.75 C 329.195312 276.222656 327.992188 276.695312 326.753906 277.097656 C 329.484375 280.730469 332.109375 285.78125 332.761719 292.324219 C 333.019531 294.832031 331.160156 297.085938 328.648438 297.304688 C 326.136719 297.558594 323.878906 295.703125 323.660156 293.160156 C 322.96875 286.253906 319.214844 281.785156 316.738281 279.566406 C 314.808594 279.894531 312.84375 280.113281 310.914062 280.222656 C 314.808594 284.183594 317.46875 288.761719 319.214844 294.796875 C 319.910156 297.15625 322.167969 299.121094 324.898438 300.175781 C 326.316406 300.71875 327.847656 300.972656 329.265625 300.902344 C 330.503906 300.828125 331.707031 300.429688 332.65625 299.703125 C 334.257812 298.464844 335.457031 296.105469 335.640625 292.25 C 336.1875 280.804688 332.363281 276.949219 330.359375 275.75 Z M 337.132812 236.824219 C 336.003906 245.148438 333.492188 256.816406 327.957031 266.773438 C 331.488281 265.210938 334.839844 263.25 337.824219 260.886719 C 344.34375 255.761719 349.40625 246.785156 353.121094 237.007812 L 353.230469 236.753906 C 348.421875 237.007812 343.070312 237.042969 337.132812 236.824219 Z M 290.921875 153.160156 C 286.222656 153.160156 282.398438 159.230469 282.398438 166.679688 C 282.398438 174.132812 286.222656 180.199219 290.921875 180.199219 C 295.617188 180.199219 299.441406 174.132812 299.441406 166.679688 C 299.441406 159.195312 295.617188 153.160156 290.921875 153.160156 Z M 310.769531 242.097656 C 308.253906 242.097656 306.214844 244.132812 306.214844 246.640625 C 306.214844 249.148438 308.253906 251.183594 310.769531 251.183594 C 313.28125 251.183594 315.320312 249.148438 315.320312 246.640625 C 315.320312 244.132812 313.28125 242.097656 310.769531 242.097656 Z M 298.128906 230.066406 C 295.617188 230.066406 293.578125 232.101562 293.578125 234.609375 C 293.578125 237.117188 295.617188 239.152344 298.128906 239.152344 C 300.644531 239.152344 302.683594 237.117188 302.683594 234.609375 C 302.683594 232.101562 300.644531 230.066406 298.128906 230.066406 Z M 293.941406 246.457031 C 291.429688 246.457031 289.390625 248.492188 289.390625 251 C 289.390625 253.507812 291.429688 255.542969 293.941406 255.542969 C 296.457031 255.542969 298.496094 253.507812 298.496094 251 C 298.496094 248.492188 296.457031 246.457031 293.941406 246.457031 Z M 251.152344 154.105469 C 246.453125 154.105469 242.632812 160.175781 242.632812 167.625 C 242.632812 175.078125 246.453125 181.144531 251.152344 181.144531 C 255.851562 181.144531 259.675781 175.113281 259.675781 167.625 C 259.675781 160.140625 255.851562 154.105469 251.152344 154.105469 Z M 119.320312 192.160156 C 119.320312 192.195312 124.96875 205.460938 120.160156 207.75 C 115.242188 210.113281 110.910156 202.40625 110.875 202.40625 C 109.636719 200.191406 106.832031 199.425781 104.609375 200.699219 C 103.117188 201.535156 102.277344 203.0625 102.277344 204.660156 C 102.242188 205.605469 101.734375 211.640625 96.304688 212.292969 C 91.644531 212.839844 91.9375 198.375 91.9375 198.335938 C 91.972656 195.828125 89.96875 193.722656 87.421875 193.683594 C 84.871094 193.648438 82.796875 195.648438 82.757812 198.191406 C 82.757812 198.265625 82.25 223.234375 97.363281 221.414062 C 103.480469 220.6875 106.941406 217.382812 108.90625 213.929688 C 112.621094 216.871094 117.828125 219.015625 124.054688 216.035156 C 136.875 209.929688 127.769531 188.777344 127.734375 188.707031 C 126.789062 186.378906 124.09375 185.253906 121.761719 186.199219 C 119.46875 187.144531 118.375 189.796875 119.320312 192.160156 Z M 184.507812 184.125 C 181.160156 192.847656 176.570312 209.894531 173.148438 227.375 C 170.015625 243.257812 167.902344 259.324219 168.59375 269.464844 C 168.886719 273.898438 170.488281 276.949219 172.820312 278.914062 C 174.347656 280.222656 176.277344 281.09375 178.390625 281.640625 C 180.722656 282.21875 183.269531 282.367188 185.855469 282.21875 C 193.613281 281.675781 201.550781 278.222656 205.558594 273.535156 C 214.882812 262.523438 210.257812 243.730469 206.394531 231.484375 C 201.589844 216.21875 193.503906 199.609375 184.507812 184.125 Z M 247.472656 232.320312 C 246.492188 234.644531 243.796875 235.734375 241.464844 234.753906 C 239.136719 233.773438 238.042969 231.082031 239.027344 228.757812 C 239.027344 228.722656 243.976562 217.164062 257.527344 211.894531 C 259.894531 210.984375 262.550781 212.148438 263.460938 214.511719 C 264.371094 216.871094 263.207031 219.527344 260.839844 220.433594 C 258.617188 221.308594 256.722656 222.359375 255.121094 223.488281 C 256.761719 227.957031 261.347656 235.84375 267.25 243.984375 C 272.601562 251.363281 278.9375 258.851562 285.128906 264.085938 C 287.824219 266.375 291.066406 268.082031 294.632812 269.246094 L 294.816406 269.316406 C 299.441406 270.808594 304.613281 271.351562 309.894531 271.097656 C 311.167969 271.027344 312.40625 270.917969 313.679688 270.734375 C 313.789062 270.625 313.898438 270.554688 314.007812 270.445312 C 323.078125 261.285156 326.644531 246.167969 328.03125 236.097656 C 304.757812 232.136719 304.757812 209.242188 306.835938 195.792969 C 292.523438 197.648438 279.921875 199.828125 279.886719 199.863281 C 277.410156 200.300781 275.003906 198.664062 274.570312 196.15625 C 274.132812 193.683594 275.769531 191.285156 278.285156 190.851562 C 278.355469 190.851562 301.300781 186.816406 320.820312 185.035156 C 319.542969 178.675781 316.777344 167.226562 311.714844 154.179688 C 308.074219 144.800781 299.914062 136.695312 288.953125 131.609375 C 278.464844 126.738281 265.5 124.628906 251.445312 126.664062 C 224.675781 130.628906 209.34375 165.84375 207.707031 169.699219 C 207.050781 171.804688 204.902344 173.1875 202.644531 172.859375 C 202.609375 172.859375 195.507812 171.734375 190.117188 175.621094 C 200.351562 192.703125 209.710938 211.492188 215.171875 228.683594 C 220.378906 245.148438 224.894531 264.882812 212.585938 279.421875 C 207.085938 285.890625 196.527344 290.652344 186.511719 291.34375 C 182.980469 291.597656 179.445312 291.34375 176.207031 290.507812 C 172.746094 289.636719 169.578125 288.144531 166.917969 285.890625 C 162.769531 282.402344 159.964844 277.203125 159.453125 270.046875 C 158.6875 259.03125 160.875 242.132812 164.152344 225.59375 C 168.304688 204.480469 174.277344 183.617188 177.917969 176.3125 C 178.207031 175.730469 178.5 175.1875 178.828125 174.640625 C 176.132812 170.316406 173.367188 166.097656 170.632812 162.136719 C 157.414062 142.875 145.140625 128.699219 140.296875 126.921875 C 130.867188 130.953125 127.660156 157.996094 127.550781 158.941406 C 127.335938 160.9375 125.839844 162.609375 123.765625 162.972656 L 83.851562 169.804688 C 81.484375 170.242188 79.152344 168.824219 78.535156 166.5 C 77.699219 163.410156 72.527344 156.214844 66.261719 151.707031 C 63.933594 150.035156 61.527344 148.800781 59.34375 148.507812 C 57.632812 148.253906 55.917969 148.652344 54.425781 149.960938 C 51.730469 152.359375 49.363281 157.414062 47.796875 166.316406 C 45.394531 179.945312 42.589844 200.554688 39.859375 222.46875 C 50.3125 225.339844 55.300781 229.265625 55.335938 229.304688 C 57.339844 230.867188 57.703125 233.738281 56.175781 235.734375 C 54.609375 237.734375 51.730469 238.097656 49.730469 236.570312 C 49.730469 236.570312 46.269531 233.847656 38.730469 231.59375 C 38.183594 236.097656 37.636719 240.679688 37.09375 245.183594 C 47.945312 247.039062 53.589844 252.128906 53.625 252.128906 C 55.519531 253.800781 55.703125 256.707031 54.027344 258.597656 C 52.351562 260.488281 49.4375 260.667969 47.542969 258.996094 C 47.542969 258.996094 43.757812 255.578125 36.035156 254.199219 C 31.59375 292.289062 32.832031 282.257812 32.792969 282.4375 C 32.539062 284.945312 30.28125 286.800781 27.769531 286.546875 C 25.257812 286.292969 23.398438 284.039062 23.652344 281.53125 C 23.691406 281.347656 22.378906 291.671875 26.824219 253.761719 C 22.816406 254.015625 18.265625 254.816406 13.058594 256.488281 C 10.652344 257.25 8.066406 255.941406 7.304688 253.542969 C 6.539062 251.144531 7.847656 248.566406 10.253906 247.765625 C 16.878906 245.621094 22.742188 244.75 27.878906 244.605469 C 28.460938 239.625 29.082031 234.644531 29.664062 229.667969 C 24.382812 228.867188 17.972656 228.429688 10.363281 228.832031 C 7.847656 228.9375 5.664062 227.011719 5.554688 224.46875 C 5.410156 221.960938 7.375 219.78125 9.886719 219.671875 C 17.972656 219.234375 24.929688 219.707031 30.792969 220.617188 C 33.523438 198.808594 36.328125 178.347656 38.695312 164.792969 C 40.660156 153.667969 44.085938 146.875 48.308594 143.164062 C 52.058594 139.859375 56.285156 138.878906 60.542969 139.496094 C 64.367188 140.039062 68.121094 141.859375 71.578125 144.367188 C 77.589844 148.691406 82.90625 155.378906 85.636719 160.285156 L 118.886719 154.613281 C 120.34375 145.671875 125.332031 122.085938 138.113281 118.050781 C 139.207031 117.726562 140.371094 117.6875 141.644531 117.941406 C 148.308594 119.289062 163.3125 135.351562 178.207031 157.085938 C 180.574219 160.539062 182.980469 164.171875 185.347656 167.878906 C 190.664062 164.320312 196.707031 163.664062 200.460938 163.664062 C 205.121094 153.632812 221.945312 121.867188 250.167969 117.726562 C 266.046875 115.398438 280.867188 117.832031 292.886719 123.429688 C 305.960938 129.535156 315.792969 139.386719 320.308594 150.980469 C 325.878906 165.335938 328.792969 177.984375 330.070312 184.453125 L 330.6875 184.417969 C 333.347656 184.308594 336.296875 184.089844 339.027344 183.910156 C 342.558594 183.652344 345.800781 183.4375 349.042969 183.398438 C 361.824219 183.21875 369.546875 185.871094 369.761719 199.972656 C 369.910156 209.347656 367.324219 225.632812 361.75 240.351562 C 357.527344 251.507812 351.519531 261.976562 343.542969 268.226562 C 342.085938 269.390625 340.519531 270.445312 338.953125 271.460938 C 342.304688 275.277344 345.363281 281.785156 344.816406 292.832031 C 344.453125 299.773438 341.867188 304.390625 338.191406 307.152344 C 335.714844 309.007812 332.835938 309.953125 329.886719 310.167969 C 327.117188 310.351562 324.242188 309.878906 321.582031 308.859375 C 316.414062 306.863281 311.933594 302.71875 310.402344 297.484375 C 309.09375 292.90625 307.089844 289.488281 304.210938 286.582031 C 301.191406 283.566406 297.039062 280.910156 291.539062 278.003906 C 286.949219 276.476562 282.800781 274.226562 279.230469 271.246094 C 272.457031 265.503906 265.574219 257.433594 259.820312 249.472656 C 254.941406 242.75 250.859375 236.027344 248.3125 230.867188 C 247.730469 231.703125 247.472656 232.320312 247.472656 232.320312 Z M 247.472656 232.320312 "/></g><path style=" stroke:none;fill-rule:evenodd;fill:#000000;fill-opacity:1;" d="M 62.4375 192.449219 C 65.824219 191.902344 69.46875 197.027344 70.558594 203.898438 C 71.652344 210.765625 69.832031 216.765625 66.445312 217.308594 C 63.058594 217.855469 59.414062 212.730469 58.324219 205.859375 C 57.195312 198.992188 59.050781 192.996094 62.4375 192.449219 Z M 62.4375 192.449219 "/><path style=" stroke:none;fill-rule:evenodd;fill:#000000;fill-opacity:1;" d="M 148.199219 178.964844 C 151.589844 178.421875 155.230469 183.542969 156.320312 190.414062 C 157.414062 197.28125 155.59375 203.28125 152.207031 203.824219 C 148.820312 204.371094 145.179688 199.246094 144.085938 192.375 C 142.957031 185.507812 144.8125 179.511719 148.199219 178.964844 Z M 148.199219 178.964844 "/></g></svg>